<svg width="20" height="20" viewBox="0 0 20 20" fill="none" xmlns="http://www.w3.org/2000/svg">
<g id="10 truck copy 2" clip-path="url(#clip0_604_12191)">
<g id="Group">
<path id="Vector" d="M14.5149 13.2797H10.1067C9.99348 13.2797 9.90158 13.188 9.90158 13.0746C9.90158 12.9612 9.99348 12.8695 10.1067 12.8695H14.3098V5.67564H5.11143V6.39707C5.11143 6.5103 5.01953 6.6022 4.9063 6.6022C4.79307 6.6022 4.70117 6.5103 4.70117 6.39707V5.47051C4.70117 5.35728 4.79307 5.26538 4.9063 5.26538H14.5149C14.6284 5.26538 14.72 5.35728 14.72 5.47051V13.0746C14.72 13.1878 14.6284 13.2797 14.5149 13.2797Z" fill="#1F1F1F"/>
<path id="Vector_2" d="M6.63348 13.2797H4.9063C4.79307 13.2797 4.70117 13.188 4.70117 13.0745V12.0413C4.70117 11.9279 4.79307 11.8362 4.9063 11.8362C5.01953 11.8362 5.11143 11.9279 5.11143 12.0413V12.8694H6.63348C6.74671 12.8694 6.83861 12.9611 6.83861 13.0745C6.83861 13.188 6.74671 13.2797 6.63348 13.2797Z" fill="#1F1F1F"/>
<path id="Vector_3" d="M19.2116 13.2798C19.0988 13.2798 19.0073 13.189 19.0065 13.0761L18.987 10.1762L16.884 7.96885H14.7203V12.8696H15.8865C15.9999 12.8696 16.0916 12.9613 16.0916 13.0747C16.0916 13.1881 15.9999 13.2798 15.8865 13.2798H14.5152C14.4018 13.2798 14.3101 13.1881 14.3101 13.0747V7.76372C14.3101 7.65049 14.4018 7.55859 14.5152 7.55859H16.972C17.028 7.55859 17.0817 7.58157 17.1205 7.62218L19.34 9.95203C19.3761 9.98998 19.3962 10.04 19.3966 10.0921L19.4167 13.0733C19.4175 13.1867 19.3263 13.279 19.213 13.2798C19.2126 13.2798 19.212 13.2798 19.2116 13.2798Z" fill="#1F1F1F"/>
<path id="Vector_4" d="M17.5485 10.2985H15.8121C15.6986 10.2985 15.6069 10.2068 15.6069 10.0934V7.76372C15.6069 7.65049 15.6986 7.55859 15.8121 7.55859C15.9255 7.55859 16.0172 7.65049 16.0172 7.76372V9.88844H17.5485C17.6619 9.88844 17.7536 9.98034 17.7536 10.0936C17.7536 10.2068 17.6617 10.2985 17.5485 10.2985Z" fill="#1F1F1F"/>
<path id="Vector_5" d="M7.71938 14.3651C7.00779 14.3651 6.42871 13.7862 6.42871 13.0746C6.42871 12.3631 7.00758 11.7842 7.71938 11.7842C8.43097 11.7842 9.00984 12.3631 9.00984 13.0746C9.00984 13.7862 8.43076 14.3651 7.71938 14.3651ZM7.71938 12.1944C7.23404 12.1944 6.83897 12.5893 6.83897 13.0746C6.83897 13.56 7.23384 13.9548 7.71938 13.9548C8.20492 13.9548 8.59958 13.56 8.59958 13.0746C8.59958 12.5893 8.20471 12.1944 7.71938 12.1944Z" fill="#1F1F1F"/>
<path id="Vector_6" d="M16.9718 14.3651C16.26 14.3651 15.6812 13.7862 15.6812 13.0746C15.6812 12.3631 16.26 11.7842 16.9718 11.7842C17.6834 11.7842 18.2623 12.3631 18.2623 13.0746C18.2623 13.7862 17.6834 14.3651 16.9718 14.3651ZM16.9718 12.1944C16.4865 12.1944 16.0914 12.5893 16.0914 13.0746C16.0914 13.56 16.4865 13.9548 16.9718 13.9548C17.4572 13.9548 17.852 13.56 17.852 13.0746C17.852 12.5893 17.4572 12.1944 16.9718 12.1944Z" fill="#1F1F1F"/>
<path id="Vector_7" d="M9.71077 9.4774H1.16021C1.04698 9.4774 0.955078 9.3855 0.955078 9.27227C0.955078 9.15904 1.04698 9.06714 1.16021 9.06714H9.71077C9.824 9.06714 9.9159 9.15904 9.9159 9.27227C9.9159 9.3855 9.824 9.4774 9.71077 9.4774Z" fill="#1F1F1F"/>
<path id="Vector_8" d="M9.7108 7.74082H3.3311C3.21787 7.74082 3.12598 7.64893 3.12598 7.53569C3.12598 7.42246 3.21787 7.33057 3.3311 7.33057H9.711C9.82423 7.33057 9.91613 7.42246 9.91613 7.53569C9.91613 7.64893 9.82403 7.74082 9.7108 7.74082Z" fill="#1F1F1F"/>
<path id="Vector_9" d="M9.7108 11.2142H3.3311C3.21787 11.2142 3.12598 11.1225 3.12598 11.0091C3.12598 10.8956 3.21787 10.804 3.3311 10.804H9.711C9.82423 10.804 9.91613 10.8956 9.91613 11.0091C9.91613 11.1225 9.82403 11.2142 9.7108 11.2142Z" fill="#1F1F1F"/>
</g>
</g>
<defs>
<clipPath id="clip0_604_12191">
<rect width="18.4615" height="18.4615" fill="white" transform="translate(0.955078 0.584473)"/>
</clipPath>
</defs>
</svg>
