<svg width="26" height="26" viewBox="0 0 26 26" fill="none" xmlns="http://www.w3.org/2000/svg">
<g id="burger">
<path id="Vector" d="M3.44531 21.0817C3.44531 20.2702 4.10318 19.6123 4.91469 19.6123H21.0056C21.8171 19.6123 22.475 20.2702 22.475 21.0817V21.0817C22.475 22.1209 22.1201 23.1175 21.4885 23.8524C20.8569 24.5872 20.0002 25 19.1069 25H6.8134C5.92013 25 5.06344 24.5872 4.4318 23.8524C3.80016 23.1175 3.44531 22.1209 3.44531 21.0817V21.0817Z" stroke="#FD7E7E" stroke-width="1.5" stroke-linecap="round" stroke-linejoin="round"/>
<path id="Vector_2" d="M20.2015 13.6368H22.3908C22.7296 13.6236 23.0671 13.6899 23.3834 13.8317C23.6996 13.9735 23.9882 14.1879 24.2317 14.4621C24.4753 14.7363 24.6689 15.0647 24.8011 15.4278C24.9332 15.7909 25.0013 16.1812 25.0011 16.5755C25.0011 17.3809 24.7261 18.1533 24.2366 18.7228C23.747 19.2923 23.0831 19.6122 22.3908 19.6122H3.52952C3.19059 19.6125 2.85511 19.5333 2.54301 19.3796C2.23091 19.2258 1.94859 19.0005 1.71289 18.7171C1.47718 18.4338 1.2929 18.0982 1.17102 17.7302C1.04915 17.3623 0.99216 16.9696 1.00346 16.5755C0.991696 16.1859 1.04901 15.7977 1.17179 15.4349C1.29458 15.0722 1.48022 14.7427 1.71718 14.4671C1.95413 14.1914 2.2373 13.9754 2.5491 13.8326C2.8609 13.6897 3.19463 13.6231 3.52952 13.6368H10.9393" stroke="#FD7E7E" stroke-width="1.5" stroke-linecap="round" stroke-linejoin="round"/>
<path id="Vector_3" d="M24.9998 11.6774C24.9935 12.1942 24.8119 12.6871 24.4946 13.0489C24.347 13.2411 24.165 13.3934 23.9613 13.4949C23.7576 13.5965 23.5373 13.6448 23.3158 13.6366H20.239C19.4196 13.6366 18.6481 14.0226 18.1567 14.6783V14.6783C17.1159 16.0672 15.0329 16.0672 13.9921 14.6783V14.6783C13.5008 14.0226 12.7292 13.6366 11.9098 13.6366H2.60208C2.38471 13.637 2.16954 13.5858 1.96974 13.4862C1.76994 13.3866 1.58967 13.2406 1.43996 13.0573C1.29024 12.874 1.17423 12.6571 1.09896 12.4198C1.0237 12.1826 0.990776 11.93 1.00222 11.6774C0.990776 11.4249 1.0237 11.1723 1.09896 10.9351C1.17423 10.6978 1.29024 10.4809 1.43996 10.2976C1.58967 10.1142 1.76994 9.96831 1.96974 9.86871C2.16954 9.76911 2.38471 9.71791 2.60208 9.71826H23.3158C23.7624 9.71826 24.1908 9.92467 24.5066 10.2921C24.8224 10.6595 24.9998 11.1578 24.9998 11.6774Z" stroke="#FD7E7E" stroke-width="1.5" stroke-linecap="round" stroke-linejoin="round"/>
<path id="Vector_4" d="M10.6867 1H15.3178C17.2383 1 19.0802 1.88757 20.4382 3.46745V3.46745C22.7625 6.17142 19.6687 9.42444 16.1031 9.42444H9.90141C6.33581 9.42444 3.242 6.17141 5.56625 3.46745V3.46745C6.92427 1.88757 8.76614 1 10.6867 1Z" stroke="#FD7E7E" stroke-width="1.5" stroke-linecap="round" stroke-linejoin="round"/>
<path id="Vector_5" d="M8.24414 5.4082L9.25458 6.68167" stroke="#FD7E7E" stroke-width="1.5" stroke-linecap="round" stroke-linejoin="round"/>
<path id="Vector_6" d="M17.3379 4.91846L18.4325 6.28987" stroke="#FD7E7E" stroke-width="1.5" stroke-linecap="round" stroke-linejoin="round"/>
<path id="Vector_7" d="M12.2852 5.50613L13.464 4.23267" stroke="#FD7E7E" stroke-width="1.5" stroke-linecap="round" stroke-linejoin="round"/>
</g>
</svg>
