<svg width="32" height="32" viewBox="0 0 32 32" fill="none" xmlns="http://www.w3.org/2000/svg">
<g id="cutlery 4">
<g id="cutlery 4_2">
<g id="Group">
<path id="Vector" d="M24.9994 4V19.3791H19.3374V9.66155C19.3374 8.16002 19.9339 6.71996 20.9958 5.65822C22.0576 4.59647 23.4978 4 24.9994 4Z" stroke="#1F1F1F" stroke-width="2" stroke-linecap="round" stroke-linejoin="round"/>
<path id="Vector_2" d="M21.7036 19.2939H24.9994V26.392C24.9994 26.8178 24.8303 27.2262 24.5291 27.5273C24.228 27.8284 23.8196 27.9975 23.3938 27.9975H23.3093C22.8834 27.9975 22.475 27.8284 22.1739 27.5273C21.8728 27.2262 21.7036 26.8178 21.7036 26.392V19.2939Z" stroke="#1F1F1F" stroke-width="2" stroke-linecap="round" stroke-linejoin="round"/>
</g>
<g id="Group_2">
<path id="Vector_3" d="M10.887 27.9983C10.3715 27.9983 9.87715 27.7935 9.51264 27.429C9.14813 27.0646 8.94336 26.5702 8.94336 26.0548L9.78844 15.4922H12.0701L12.9152 26.0548C12.9155 26.3173 12.8626 26.5771 12.7596 26.8186C12.6567 27.06 12.5059 27.2782 12.3164 27.4598C12.1268 27.6414 11.9025 27.7828 11.6568 27.8753C11.4112 27.9679 11.1493 28.0097 10.887 27.9983Z" stroke="#1F1F1F" stroke-width="2" stroke-linecap="round" stroke-linejoin="round"/>
<path id="Vector_4" d="M14.6902 11.6895C14.5532 12.6112 14.0895 13.453 13.3838 14.0616C12.678 14.6702 11.7771 15.0049 10.8451 15.0049C9.91318 15.0049 9.01224 14.6702 8.30646 14.0616C7.60068 13.453 7.13703 12.6112 7 11.6895H14.6902Z" stroke="#1F1F1F" stroke-width="2" stroke-linecap="round" stroke-linejoin="round"/>
<path id="Vector_5" d="M7 4.67578V11.6893" stroke="#1F1F1F" stroke-width="2" stroke-linecap="round" stroke-linejoin="round"/>
<path id="Vector_6" d="M10.8022 4.67578V11.5203" stroke="#1F1F1F" stroke-width="2" stroke-linecap="round" stroke-linejoin="round"/>
<path id="Vector_7" d="M14.6904 4.67578V11.6893" stroke="#1F1F1F" stroke-width="2" stroke-linecap="round" stroke-linejoin="round"/>
</g>
</g>
</g>
</svg>
