<svg width="32" height="32" viewBox="0 0 32 32" fill="none" xmlns="http://www.w3.org/2000/svg">
<g id="Facebook">
<path id="Path" d="M32 15.9998C32 7.16242 24.8375 0 16 0C7.16253 0 0 7.16242 0 15.9998C0 23.9872 5.85 30.6058 13.5 31.8058V20.6247H9.43747V15.9998H13.5V12.4748C13.5 8.46547 15.8875 6.2499 19.5437 6.2499C21.2937 6.2499 23.125 6.5624 23.125 6.5624V10.4998H21.1063C19.1187 10.4998 18.5 11.7342 18.5 12.9998V15.9998H22.9375L22.2281 20.6247H18.5V31.8058C26.15 30.6058 32 23.9872 32 15.9998Z" fill="#1877F2"/>
<path id="Path_2" d="M22.2291 20.6253L22.9385 16.0003H18.501V13.0004C18.501 11.7348 19.1197 10.5004 21.1073 10.5004H23.126V6.56298C23.126 6.56298 21.2947 6.25049 19.5447 6.25049C15.8885 6.25049 13.501 8.46605 13.501 12.4754V16.0003H9.43848V20.6253H13.501V31.8064C14.3166 31.9345 15.151 32.0001 16.001 32.0001C16.851 32.0001 17.6854 31.9345 18.501 31.8064V20.6253H22.2291Z" fill="#FEFEFE"/>
</g>
</svg>
