<svg width="32" height="40" viewBox="0 0 32 40" fill="none" xmlns="http://www.w3.org/2000/svg">
<g id="Frame">
<path id="Vector" fill-rule="evenodd" clip-rule="evenodd" d="M15.1243 38.6288C15.9147 38.6288 30.0372 23.5396 30.0372 15.3035C30.0372 7.06734 23.3604 0.390625 15.1243 0.390625C6.88814 0.390625 0.211426 7.06734 0.211426 15.3035C0.211426 23.5396 14.3339 38.6288 15.1243 38.6288ZM15.1243 22.7624C19.3001 22.7624 22.6852 19.3773 22.6852 15.2015C22.6852 11.0258 19.3001 7.64069 15.1243 7.64069C10.9486 7.64069 7.5635 11.0258 7.5635 15.2015C7.5635 19.3773 10.9486 22.7624 15.1243 22.7624Z" fill="#3A98EA"/>
<path id="Vector_2" fill-rule="evenodd" clip-rule="evenodd" d="M0.211426 15.3035C0.211426 23.5396 14.3339 38.6288 15.1243 38.6288V22.7624C10.9486 22.7622 7.5635 19.3772 7.5635 15.2015C7.5635 11.0258 10.9486 7.64071 15.1243 7.64069V0.390625C6.88814 0.390625 0.211426 7.06734 0.211426 15.3035Z" fill="#2E7ABB"/>
</g>
</svg>
