<svg width="28" height="32" viewBox="0 0 28 32" fill="none" xmlns="http://www.w3.org/2000/svg">
<g id="Group">
<g id="Group_2">
<path id="Vector" d="M26.25 26.2674V26.2556L26.2489 26.2437L24.5206 8.08733C24.5205 8.08694 24.5205 8.08655 24.5205 8.08617C24.4761 7.58041 24.0278 7.22713 23.5254 7.22713H20.1256C19.9793 4.1704 17.2722 1.75 14 1.75C10.7278 1.75 8.02075 4.1704 7.87435 7.22713H4.47461C3.97557 7.22713 3.53181 7.58237 3.47983 8.08307L3.47982 8.08306L3.47962 8.08519L1.75112 26.2437L1.75 26.2556V26.2674V26.2676V26.2677V26.2678V26.268V26.2681V26.2683V26.2684V26.2685V26.2687V26.2688V26.2689V26.2691V26.2692V26.2693V26.2695V26.2696V26.2697V26.2699V26.27V26.2701V26.2703V26.2704V26.2705V26.2707V26.2708V26.2709V26.2711V26.2712V26.2713V26.2715V26.2716V26.2717V26.2719V26.272V26.2721V26.2722V26.2724V26.2725V26.2726V26.2728V26.2729V26.273V26.2732V26.2733V26.2734V26.2736V26.2737V26.2738V26.2739V26.2741V26.2742V26.2743V26.2745V26.2746V26.2747V26.2749V26.275V26.2751V26.2752V26.2754V26.2755V26.2756V26.2758V26.2759V26.276V26.2761V26.2763V26.2764V26.2765V26.2767V26.2768V26.2769V26.277V26.2772V26.2773V26.2774V26.2775V26.2777V26.2778V26.2779V26.2781V26.2782V26.2783V26.2784V26.2786V26.2787V26.2788V26.2789V26.2791V26.2792V26.2793V26.2794V26.2796V26.2797V26.2798V26.2799V26.2801V26.2802V26.2803V26.2804V26.2806V26.2807V26.2808V26.2809V26.2811V26.2812V26.2813V26.2814V26.2816V26.2817V26.2818V26.2819V26.2821V26.2822V26.2823V26.2824V26.2826V26.2827V26.2828V26.2829V26.2831V26.2832V26.2833V26.2834V26.2836V26.2837V26.2838V26.2839V26.284V26.2842V26.2843V26.2844V26.2845V26.2847V26.2848V26.2849V26.285V26.2851V26.2853V26.2854V26.2855V26.2856V26.2858V26.2859V26.286V26.2861V26.2862V26.2864V26.2865V26.2866V26.2867V26.2869V26.287V26.2871V26.2872V26.2873V26.2875V26.2876V26.2877V26.2878V26.288V26.2881V26.2882V26.2883V26.2884V26.2886V26.2887V26.2888V26.2889V26.289V26.2892V26.2893V26.2894V26.2895V26.2896V26.2898V26.2899V26.29V26.2901V26.2902V26.2904V26.2905V26.2906V26.2907V26.2908V26.291V26.2911V26.2912V26.2913V26.2914V26.2916V26.2917V26.2918V26.2919V26.292V26.2922V26.2923V26.2924V26.2925V26.2926V26.2928V26.2929V26.293V26.2931V26.2932V26.2934V26.2935V26.2936V26.2937V26.2938V26.294V26.2941V26.2942V26.2943V26.2944V26.2946V26.2947V26.2948V26.2949V26.295V26.2952V26.2953V26.2954V26.2955V26.2956V26.2957V26.2959V26.296V26.2961V26.2962V26.2963V26.2965V26.2966V26.2967V26.2968V26.2969V26.2971V26.2972V26.2973V26.2974V26.2975V26.2977V26.2978V26.2979V26.298V26.2981V26.2982V26.2984V26.2985V26.2986V26.2987V26.2988V26.299V26.2991V26.2992V26.2993V26.2994V26.2996V26.2997V26.2998V26.2999V26.3V26.3001V26.3003V26.3004V26.3005V26.3006V26.3007V26.3009V26.301V26.3011V26.3012V26.3013V26.3015V26.3016V26.3017V26.3018V26.3019V26.3021V26.3022V26.3023V26.3024V26.3025V26.3026V26.3028V26.3029V26.303V26.3031V26.3032V26.3034V26.3035V26.3036V26.3037V26.3038V26.304V26.3041V26.3042V26.3043V26.3044V26.3046V26.3047V26.3048V26.3049V26.305V26.3052V26.3053V26.3054V26.3055V26.3056V26.3057V26.3059V26.306V26.3061V26.3062V26.3063V26.3065V26.3066V26.3067V26.3068V26.3069V26.3071V26.3072V26.3073V26.3074V26.3075V26.3077V26.3078V26.3079V26.308V26.3081V26.3083V26.3084V26.3085V26.3086V26.3087V26.3089V26.309V26.3091V26.3092V26.3094V26.3095V26.3096V26.3097V26.3098V26.31V26.3101V26.3102V26.3103V26.3104V26.3106V26.3107V26.3108V26.3109V26.311V26.3112V26.3113V26.3114V26.3115V26.3117V26.3118V26.3119V26.312V26.3121V26.3123V26.3124V26.3125V26.3126V26.3127V26.3129V26.313V26.3131V26.3132V26.3134V26.3135V26.3136V26.3137V26.3139V26.314V26.3141V26.3142V26.3143V26.3145V26.3146V26.3147V26.3148V26.315V26.3151V26.3152V26.3153V26.3155V26.3156V26.3157V26.3158V26.3159V26.3161V26.3162V26.3163V26.3164V26.3166V26.3167V26.3168V26.3169V26.3171V26.3172V26.3173V26.3174V26.3176V26.3177V26.3178V26.3179V26.3181V26.3182V26.3183V26.3184V26.3186V26.3187V26.3188V26.3189V26.3191V26.3192V26.3193V26.3194V26.3196V26.3197V26.3198V26.3199V26.3201V26.3202V26.3203V26.3205V26.3206V26.3207V26.3208V26.321V26.3211V26.3212V26.3213V26.3215V26.3216V26.3217V26.3219V26.322V26.3221V26.3222V26.3224V26.3225V26.3226V26.3227V26.3229V26.323V26.3231V26.3233V26.3234V26.3235V26.3237V26.3238V26.3239V26.324V26.3242V26.3243V26.3244V26.3246V26.3247V26.3248V26.3249V26.3251V26.3252V26.3253V26.3255V26.3256V26.3257V26.3259V26.326V26.3261V26.3263V26.3264V26.3265V26.3266V26.3268V26.3269V26.327V26.3272V26.3273V26.3274V26.3276V26.3277V26.3278V26.328V26.3281V26.3282V26.3284V26.3285V26.3286V26.3288V26.3289V26.329V26.3292V26.3293V26.3294V26.3296V26.3297V26.3298V26.33V26.3301V26.3302V26.3304V26.3305V26.3307V26.3308V26.3309V26.3311V26.3312C1.75 28.5349 3.9049 30.25 6.4456 30.25H21.5544C24.0951 30.25 26.25 28.5349 26.25 26.3312V26.3311V26.3309V26.3308V26.3307V26.3305V26.3304V26.3302V26.3301V26.33V26.3298V26.3297V26.3296V26.3294V26.3293V26.3292V26.329V26.3289V26.3288V26.3286V26.3285V26.3284V26.3282V26.3281V26.328V26.3278V26.3277V26.3276V26.3274V26.3273V26.3272V26.327V26.3269V26.3268V26.3266V26.3265V26.3264V26.3263V26.3261V26.326V26.3259V26.3257V26.3256V26.3255V26.3253V26.3252V26.3251V26.3249V26.3248V26.3247V26.3246V26.3244V26.3243V26.3242V26.324V26.3239V26.3238V26.3237V26.3235V26.3234V26.3233V26.3231V26.323V26.3229V26.3227V26.3226V26.3225V26.3224V26.3222V26.3221V26.322V26.3219V26.3217V26.3216V26.3215V26.3213V26.3212V26.3211V26.321V26.3208V26.3207V26.3206V26.3205V26.3203V26.3202V26.3201V26.3199V26.3198V26.3197V26.3196V26.3194V26.3193V26.3192V26.3191V26.3189V26.3188V26.3187V26.3186V26.3184V26.3183V26.3182V26.3181V26.3179V26.3178V26.3177V26.3176V26.3174V26.3173V26.3172V26.3171V26.3169V26.3168V26.3167V26.3166V26.3164V26.3163V26.3162V26.3161V26.3159V26.3158V26.3157V26.3156V26.3155V26.3153V26.3152V26.3151V26.315V26.3148V26.3147V26.3146V26.3145V26.3143V26.3142V26.3141V26.314V26.3139V26.3137V26.3136V26.3135V26.3134V26.3132V26.3131V26.313V26.3129V26.3127V26.3126V26.3125V26.3124V26.3123V26.3121V26.312V26.3119V26.3118V26.3117V26.3115V26.3114V26.3113V26.3112V26.311V26.3109V26.3108V26.3107V26.3106V26.3104V26.3103V26.3102V26.3101V26.31V26.3098V26.3097V26.3096V26.3095V26.3094V26.3092V26.3091V26.309V26.3089V26.3087V26.3086V26.3085V26.3084V26.3083V26.3081V26.308V26.3079V26.3078V26.3077V26.3075V26.3074V26.3073V26.3072V26.3071V26.3069V26.3068V26.3067V26.3066V26.3065V26.3063V26.3062V26.3061V26.306V26.3059V26.3057V26.3056V26.3055V26.3054V26.3053V26.3052V26.305V26.3049V26.3048V26.3047V26.3046V26.3044V26.3043V26.3042V26.3041V26.304V26.3038V26.3037V26.3036V26.3035V26.3034V26.3032V26.3031V26.303V26.3029V26.3028V26.3026V26.3025V26.3024V26.3023V26.3022V26.3021V26.3019V26.3018V26.3017V26.3016V26.3015V26.3013V26.3012V26.3011V26.301V26.3009V26.3007V26.3006V26.3005V26.3004V26.3003V26.3001V26.3V26.2999V26.2998V26.2997V26.2996V26.2994V26.2993V26.2992V26.2991V26.299V26.2988V26.2987V26.2986V26.2985V26.2984V26.2982V26.2981V26.298V26.2979V26.2978V26.2977V26.2975V26.2974V26.2973V26.2972V26.2971V26.2969V26.2968V26.2967V26.2966V26.2965V26.2963V26.2962V26.2961V26.296V26.2959V26.2957V26.2956V26.2955V26.2954V26.2953V26.2952V26.295V26.2949V26.2948V26.2947V26.2946V26.2944V26.2943V26.2942V26.2941V26.294V26.2938V26.2937V26.2936V26.2935V26.2934V26.2932V26.2931V26.293V26.2929V26.2928V26.2926V26.2925V26.2924V26.2923V26.2922V26.292V26.2919V26.2918V26.2917V26.2916V26.2914V26.2913V26.2912V26.2911V26.291V26.2908V26.2907V26.2906V26.2905V26.2904V26.2902V26.2901V26.29V26.2899V26.2898V26.2896V26.2895V26.2894V26.2893V26.2892V26.289V26.2889V26.2888V26.2887V26.2886V26.2884V26.2883V26.2882V26.2881V26.288V26.2878V26.2877V26.2876V26.2875V26.2873V26.2872V26.2871V26.287V26.2869V26.2867V26.2866V26.2865V26.2864V26.2862V26.2861V26.286V26.2859V26.2858V26.2856V26.2855V26.2854V26.2853V26.2851V26.285V26.2849V26.2848V26.2847V26.2845V26.2844V26.2843V26.2842V26.284V26.2839V26.2838V26.2837V26.2836V26.2834V26.2833V26.2832V26.2831V26.2829V26.2828V26.2827V26.2826V26.2824V26.2823V26.2822V26.2821V26.2819V26.2818V26.2817V26.2816V26.2814V26.2813V26.2812V26.2811V26.2809V26.2808V26.2807V26.2806V26.2804V26.2803V26.2802V26.2801V26.2799V26.2798V26.2797V26.2796V26.2794V26.2793V26.2792V26.2791V26.2789V26.2788V26.2787V26.2786V26.2784V26.2783V26.2782V26.2781V26.2779V26.2778V26.2777V26.2775V26.2774V26.2773V26.2772V26.277V26.2769V26.2768V26.2767V26.2765V26.2764V26.2763V26.2761V26.276V26.2759V26.2758V26.2756V26.2755V26.2754V26.2752V26.2751V26.275V26.2749V26.2747V26.2746V26.2745V26.2743V26.2742V26.2741V26.2739V26.2738V26.2737V26.2736V26.2734V26.2733V26.2732V26.273V26.2729V26.2728V26.2726V26.2725V26.2724V26.2722V26.2721V26.272V26.2719V26.2717V26.2716V26.2715V26.2713V26.2712V26.2711V26.2709V26.2708V26.2707V26.2705V26.2704V26.2703V26.2701V26.27V26.2699V26.2697V26.2696V26.2695V26.2693V26.2692V26.2691V26.2689V26.2688V26.2687V26.2685V26.2684V26.2683V26.2681V26.268V26.2678V26.2677V26.2676V26.2674ZM14 3.64102C16.2052 3.64102 17.9859 5.24052 18.1302 7.22713H9.86979C10.0141 5.24052 11.7948 3.64102 14 3.64102ZM6.4456 28.3532C4.90885 28.3532 3.76756 27.4125 3.74246 26.3639L5.38586 9.11814H7.86813V11.3082C7.86813 11.8451 8.33264 12.2537 8.86425 12.2537C9.39585 12.2537 9.86036 11.8451 9.86036 11.3082V9.11814H18.1396V11.3082C18.1396 11.8451 18.6041 12.2537 19.1358 12.2537C19.6674 12.2537 20.1319 11.8451 20.1319 11.3082V9.11814H22.6141L24.2575 26.3696C24.2324 27.4122 23.0916 28.3532 21.5544 28.3532H6.4456Z" fill="#1F1F1F" stroke="#1F1F1F" stroke-width="0.5"/>
</g>
</g>
</svg>
