<svg width="32" height="32" viewBox="0 0 32 32" fill="none" xmlns="http://www.w3.org/2000/svg">
<g id="icon / jam-icons / filled / home-f">
<path id="Vector" d="M20.9998 28.4198V22.7532C20.9998 21.4271 20.4731 20.1553 19.5354 19.2176C18.5977 18.2799 17.3259 17.7532 15.9998 17.7532C14.6738 17.7532 13.402 18.2799 12.4643 19.2176C11.5266 20.1553 10.9998 21.4271 10.9998 22.7532V28.4198H5.33317C4.89114 28.4198 4.46722 28.2442 4.15466 27.9317C3.8421 27.6191 3.6665 27.1952 3.6665 26.7532V12.2625C3.6665 11.9747 3.74103 11.6918 3.88283 11.4413C4.02463 11.1909 4.22887 10.9814 4.47567 10.8333C4.47567 10.8333 4.47567 10.8333 4.47567 10.8333L15.1423 4.43332L14.6278 3.57583L15.1423 4.43332C15.4014 4.2779 15.6978 4.1958 15.9998 4.1958C16.3019 4.1958 16.5983 4.2779 16.8573 4.43332L17.3701 3.5787L16.8573 4.43332L27.524 10.8333C27.7708 10.9814 27.975 11.1909 28.1168 11.4413C28.2586 11.6918 28.3332 11.9747 28.3332 12.2625V26.7532C28.3332 27.1952 28.1576 27.6191 27.845 27.9317C27.5325 28.2442 27.1085 28.4198 26.6665 28.4198H20.9998Z" stroke="#FD7E7E" stroke-width="2"/>
</g>
</svg>
