<svg width="32" height="32" viewBox="0 0 32 32" fill="none" xmlns="http://www.w3.org/2000/svg">
<g id="icon / heroicons / Outline / office-building">
<path id="Icon" d="M25.3333 28V6.66667C25.3333 5.19391 24.1394 4 22.6667 4H9.33333C7.86057 4 6.66667 5.19391 6.66667 6.66667V28M25.3333 28L28 28M25.3333 28H18.6667M6.66667 28L4 28M6.66667 28H13.3333M13.3333 28V21.3333C13.3333 20.5969 13.9303 20 14.6667 20H17.3333C18.0697 20 18.6667 20.5969 18.6667 21.3333V28M13.3333 28H18.6667" stroke="#3A98EA" stroke-width="2" stroke-linecap="round" stroke-linejoin="round"/>
<path id="Vector" d="M14.5761 8.61732C14.5 8.80109 14.5 9.03406 14.5 9.5V10.44C14.5 10.4683 14.5 10.4824 14.4912 10.4912C14.4824 10.5 14.4683 10.5 14.44 10.5H13.5C13.0341 10.5 12.8011 10.5 12.6173 10.5761C12.3723 10.6776 12.1776 10.8723 12.0761 11.1173C12 11.3011 12 11.5341 12 12C12 12.4659 12 12.6989 12.0761 12.8827C12.1776 13.1277 12.3723 13.3224 12.6173 13.4239C12.8011 13.5 13.0341 13.5 13.5 13.5H14.44C14.4683 13.5 14.4824 13.5 14.4912 13.5088C14.5 13.5176 14.5 13.5317 14.5 13.56V14.5C14.5 14.9659 14.5 15.1989 14.5761 15.3827C14.6776 15.6277 14.8723 15.8224 15.1173 15.9239C15.3011 16 15.5341 16 16 16C16.4659 16 16.6989 16 16.8827 15.9239C17.1277 15.8224 17.3224 15.6277 17.4239 15.3827C17.5 15.1989 17.5 14.9659 17.5 14.5V13.56C17.5 13.5317 17.5 13.5176 17.5088 13.5088C17.5176 13.5 17.5317 13.5 17.56 13.5H18.5C18.9659 13.5 19.1989 13.5 19.3827 13.4239C19.6277 13.3224 19.8224 13.1277 19.9239 12.8827C20 12.6989 20 12.4659 20 12C20 11.5341 20 11.3011 19.9239 11.1173C19.8224 10.8723 19.6277 10.6776 19.3827 10.5761C19.1989 10.5 18.9659 10.5 18.5 10.5H17.56C17.5317 10.5 17.5176 10.5 17.5088 10.4912C17.5 10.4824 17.5 10.4683 17.5 10.44V9.5C17.5 9.03406 17.5 8.80109 17.4239 8.61732C17.3224 8.37229 17.1277 8.17761 16.8827 8.07612C16.6989 8 16.4659 8 16 8C15.5341 8 15.3011 8 15.1173 8.07612C14.8723 8.17761 14.6776 8.37229 14.5761 8.61732Z" fill="#3A98EA"/>
</g>
</svg>
