<svg width="24" height="24" viewBox="0 0 24 24" fill="none" xmlns="http://www.w3.org/2000/svg">
<g id="icon / ionicons / sharp / person-sharp">
<path id="Vector" d="M14.3612 10.2837C13.6623 10.7507 12.8406 11 12 11C10.8728 11 9.79183 10.5522 8.9948 9.75521C8.19777 8.95818 7.75 7.87717 7.75 6.75C7.75 5.90943 7.99926 5.08774 8.46625 4.38883C8.93325 3.68992 9.59701 3.14519 10.3736 2.82351C11.1502 2.50184 12.0047 2.41768 12.8291 2.58166C13.6536 2.74565 14.4108 3.15043 15.0052 3.7448C15.5996 4.33917 16.0044 5.09645 16.1683 5.92087C16.3323 6.74529 16.2482 7.59982 15.9265 8.37641C15.6048 9.15299 15.0601 9.81675 14.3612 10.2837ZM3.25 19.5C3.25 18.1099 4.39481 16.8632 6.34694 15.9007C8.24247 14.9661 10.5289 14.5 12 14.5C13.4711 14.5 15.7575 14.9661 17.6531 15.9007C19.6052 16.8632 20.75 18.1099 20.75 19.5V21.5H3.25V19.5Z" stroke="#1F1F1F" stroke-width="2"/>
</g>
</svg>
