<svg width="18" height="18" viewBox="0 0 18 18" fill="none" xmlns="http://www.w3.org/2000/svg">
<g id="search">
<path id="Icon" fill-rule="evenodd" clip-rule="evenodd" d="M13.4246 11.8949L15.3198 13.7896C15.7684 14.2381 15.7684 14.9652 15.3198 15.4137C14.8712 15.8621 14.1439 15.8621 13.6953 15.4137L11.8001 13.519C11.6505 13.3695 11.6505 13.1271 11.8001 12.9776L12.8831 11.8949C13.0326 11.7455 13.275 11.7455 13.4246 11.8949ZM8.08722 2.25C11.2592 2.25 13.8307 4.82069 13.8307 7.99179C13.8307 11.1629 11.2592 13.7336 8.08722 13.7336C4.91519 13.7336 2.34375 11.1629 2.34375 7.99179C2.34375 4.82069 4.91519 2.25 8.08722 2.25ZM8.08722 3.78114C5.76106 3.78114 3.87534 5.66631 3.87534 7.99179C3.87534 10.3173 5.76106 12.2024 8.08722 12.2024C10.4134 12.2024 12.2991 10.3173 12.2991 7.99179C12.2991 5.66631 10.4134 3.78114 8.08722 3.78114ZM9.48078 4.42557C10.5751 4.85319 11.4185 5.76573 11.7559 6.893C11.8771 7.29807 11.647 7.7247 11.2418 7.84592C10.855 7.96162 10.4486 7.75722 10.307 7.38609L10.2886 7.33196C10.0865 6.65691 9.5792 6.10799 8.92318 5.85164C8.52927 5.69771 8.33476 5.25369 8.48874 4.85989C8.64271 4.46609 9.08687 4.27164 9.48078 4.42557Z" fill="#BABABA"/>
</g>
</svg>
