<svg width="28" height="32" viewBox="0 0 28 32" fill="none" xmlns="http://www.w3.org/2000/svg">
<path id="Shape" fill-rule="evenodd" clip-rule="evenodd" d="M20.1453 0C20.4384 1.94366 19.628 3.8478 18.5589 5.195C17.4151 6.64004 15.4436 7.75769 13.5334 7.69936C13.1847 5.83849 14.0775 3.92118 15.1639 2.63231C16.3556 1.20985 18.3979 0.118539 20.1453 0ZM25.8829 27.3586C26.8677 25.8854 27.2355 25.1422 28 23.4789C22.44 21.4148 21.5491 13.6985 27.0516 10.7369C25.3733 8.68224 23.0148 7.49121 20.7885 7.49121C19.1843 7.49121 18.0852 7.89986 17.0861 8.27137C16.2534 8.58096 15.4901 8.86475 14.5618 8.86475C13.5585 8.86475 12.6701 8.5538 11.7399 8.22821C10.7177 7.87043 9.64502 7.49497 8.31394 7.49497C5.81558 7.49497 3.15629 8.98517 1.47028 11.5328C-0.899708 15.121 -0.495449 21.8664 3.34788 27.6127C4.7216 29.6692 6.55704 31.9798 8.95769 32.0005C9.9538 32.0101 10.6167 31.7199 11.334 31.4058C12.155 31.0464 13.0473 30.6557 14.5924 30.6476C16.1466 30.6385 17.0249 31.034 17.835 31.3988C18.5339 31.7134 19.182 32.0053 20.1696 31.9948C22.5722 31.976 24.5092 29.4152 25.8829 27.3586Z" fill="#0B0B0A"/>
</svg>
