<svg width="99" height="99" viewBox="0 0 99 99" fill="none" xmlns="http://www.w3.org/2000/svg">
<g id="shopping-bag" clip-path="url(#clip0_218_40855)">
<g id="Group">
<g id="Group_2">
<path id="Vector" d="M89.1484 85.8027L83.4443 21.5993C83.3417 20.3287 82.2748 19.3656 80.9822 19.3656H68.9585C68.938 8.68888 60.2383 0 49.5484 0C38.8584 0 30.1587 8.68888 30.1382 19.3656H18.1146C16.8425 19.3656 15.7755 20.3287 15.6524 21.5993L9.94836 85.8027C9.94836 85.8847 9.94836 85.9462 9.94836 86.0282C9.94836 93.1801 16.5347 99 24.6188 99H74.4779C82.562 99 89.1484 93.1801 89.1484 86.0282C89.1484 85.9462 89.1484 85.8847 89.1484 85.8027ZM49.5484 4.91824C57.5299 4.91824 64.0137 11.3939 64.0342 19.3656H35.0626C35.0831 11.3939 41.5668 4.91824 49.5484 4.91824ZM74.4779 94.0613H24.6188C19.2841 94.0613 14.9343 90.516 14.8727 86.1101L20.3716 24.2838H30.1382V32.9112C30.1382 34.2637 31.2462 35.3703 32.6004 35.3703C33.9546 35.3703 35.0626 34.2637 35.0626 32.9112V24.2838H64.0342V32.9112C64.0342 34.2637 65.1422 35.3703 66.4963 35.3703C67.8505 35.3703 68.9585 34.2637 68.9585 32.9112V24.2838H78.7252L84.224 86.1306C84.1625 90.516 79.8126 94.0613 74.4779 94.0613Z" fill="#DDDDDD"/>
</g>
</g>
</g>
<defs>
<clipPath id="clip0_218_40855">
<rect width="99" height="99" fill="white"/>
</clipPath>
</defs>
</svg>
