<svg width="32" height="32" viewBox="0 0 32 32" fill="none" xmlns="http://www.w3.org/2000/svg">
<g id="icon / ionicons / sharp / storefront-sharp">
<path id="Vector" d="M28.25 28.7499V27.9999V17.74C27.8148 17.834 27.3712 17.8882 26.9247 17.9015L26.9136 17.9018H26.9025C26.8751 17.9018 26.8472 17.9024 26.811 17.9032L26.8065 17.9033L28.25 28.7499ZM28.25 28.7499H29H30.25M28.25 28.7499H30.25M5.36947 17.9049C6.61386 17.9065 7.83585 17.5936 8.92313 16.9986C10.01 17.5934 11.2316 17.9063 12.4755 17.9049C13.7252 17.9087 14.9535 17.5998 16.0495 17.0095C17.1318 17.5973 18.3462 17.9063 19.5826 17.9049C20.8245 17.9079 22.0452 17.6025 23.1362 17.0193C24.2277 17.6027 25.4488 17.9081 26.691 17.9049L5.15938 17.1518L5.15562 17.2403L5.14684 17.4477L5.12762 17.9011C5.12954 17.9012 5.13145 17.9013 5.13336 17.9014C5.13701 17.9015 5.14064 17.9016 5.14426 17.9018C5.22754 17.9049 5.3037 17.9049 5.36524 17.9049H5.36947ZM5.36947 17.9049C5.36932 17.9049 5.36917 17.9049 5.36901 17.9049L5.37 17.1549V17.9049H5.36947ZM30.25 28.7499V29.2499H1.75V28.7499H30.25ZM3.75 16.956C3.49587 16.8919 3.2454 16.8125 3 16.718V17.5156C3.2463 17.5995 3.49667 17.67 3.75 17.727V16.956ZM14 24.7499H14.75V23.9999V19.2499C14.75 18.9847 14.6446 18.7303 14.4571 18.5428C14.2696 18.3553 14.0152 18.2499 13.75 18.2499H8.25C7.98479 18.2499 7.73043 18.3553 7.54289 18.5428C7.35536 18.7303 7.25 18.9847 7.25 19.2499V23.9999V24.7499H8H14ZM24 28.7499H24.75V27.9999V19.2499C24.75 18.9847 24.6446 18.7303 24.4571 18.5428C24.2696 18.3553 24.0152 18.2499 23.75 18.2499H19.25C18.9848 18.2499 18.7304 18.3553 18.5429 18.5428C18.3554 18.7303 18.25 18.9847 18.25 19.2499V27.9999V28.7499H19H24Z" stroke="#FD7E7E" stroke-width="1.5"/>
<path id="Vector_2" d="M30.1021 10.9514L30.0989 10.9441L27.1814 4.3016L27.1801 4.29863C26.9575 3.7858 26.8099 3.44748 26.6765 3.20275C26.5459 2.96323 26.4697 2.89325 26.4295 2.8652C26.3959 2.84174 26.3228 2.80167 26.0907 2.77707C25.8446 2.75098 25.5162 2.75 25 2.75H6.99999C6.48373 2.75 6.15534 2.75098 5.90917 2.77707C5.67711 2.80167 5.60373 2.84175 5.56976 2.86542C5.52916 2.89369 5.45274 2.96395 5.32175 3.20354C5.1879 3.44834 5.03972 3.78673 4.81633 4.29953L4.81542 4.3016L4.81542 4.3016L1.89792 10.9441L1.89486 10.9511L1.89165 10.958C1.7077 11.3547 1.72699 11.779 1.81838 12.1453C1.86318 12.3249 1.92202 12.4761 1.96903 12.5808C1.99231 12.6327 2.01203 12.6717 2.02457 12.6954C2.02967 12.705 2.03352 12.712 2.03585 12.7162L2.05294 12.7437C2.06369 12.7606 2.0767 12.7806 2.08919 12.7992C2.0958 12.809 2.10129 12.817 2.10549 12.8229C2.10744 12.8256 2.10868 12.8273 2.10925 12.8281L2.11389 12.8339L2.11384 12.834C2.12276 12.8456 2.1305 12.8562 2.13657 12.8648L2.41697 13.2067L2.70157 13.4822L2.7093 13.4888C2.86203 13.6192 3.02538 13.7365 3.19765 13.8396L3.34536 13.928C3.87614 14.2191 4.46845 14.3822 5.07489 14.4031H5.0751H5.0754H5.0757H5.076H5.0763H5.0766H5.0769H5.0772H5.0775H5.0778H5.0781H5.0784H5.0787H5.079H5.0793H5.0796H5.07991H5.08021H5.08051H5.08081H5.08111H5.08141H5.08171H5.08201H5.08231H5.08261H5.08291H5.08321H5.08351H5.08381H5.08411H5.08441H5.08471H5.08501H5.08531H5.08561H5.08591H5.08621H5.08651H5.08681H5.08711H5.08741H5.08771H5.08802H5.08832H5.08862H5.08892H5.08922H5.08952H5.08982H5.09012H5.09042H5.09072H5.09102H5.09132H5.09162H5.09192H5.09222H5.09252H5.09282H5.09312H5.09342H5.09372H5.09402H5.09432H5.09462H5.09492H5.09523H5.09553H5.09583H5.09613H5.09643H5.09673H5.09703H5.09733H5.09763H5.09793H5.09823H5.09853H5.09883H5.09913H5.09943H5.09973H5.10003H5.10033H5.10063H5.10093H5.10124H5.10154H5.10184H5.10214H5.10244H5.10274H5.10304H5.10334H5.10364H5.10394H5.10424H5.10454H5.10484H5.10514H5.10544H5.10574H5.10604H5.10634H5.10665H5.10695H5.10725H5.10755H5.10785H5.10815H5.10845H5.10875H5.10905H5.10935H5.10965H5.10995H5.11025H5.11055H5.11085H5.11115H5.11146H5.11176H5.11206H5.11236H5.11266H5.11296H5.11326H5.11356H5.11386H5.11416H5.11446H5.11476H5.11506H5.11536H5.11566H5.11597H5.11627H5.11657H5.11687H5.11717H5.11747H5.11777H5.11807H5.11837H5.11867H5.11897H5.11927H5.11958H5.11988H5.12018H5.12048H5.12078H5.12108H5.12138H5.12168H5.12198H5.12228H5.12258H5.12288H5.12319H5.12349H5.12379H5.12409H5.12439H5.12469H5.12499H5.12529H5.12559H5.12589H5.12619H5.12649H5.1268H5.1271H5.1274H5.1277H5.128H5.1283H5.1286H5.1289H5.1292H5.1295H5.12981H5.13011H5.13041H5.13071H5.13101H5.13131H5.13161H5.13191H5.13221H5.13251H5.13282H5.13312H5.13342H5.13372H5.13402H5.13432H5.13462H5.13492H5.13522H5.13553H5.13583H5.13613H5.13643H5.13673H5.13703H5.13733H5.13763H5.13793H5.13824H5.13854H5.13884H5.13914H5.13944H5.13974H5.14004H5.14034H5.14065H5.14095H5.14125H5.14155H5.14185H5.14215H5.14245H5.14275H5.14306H5.14336H5.14366H5.14396H5.14426H5.14456H5.14486H5.14516H5.14547H5.14577H5.14607H5.14637H5.14667H5.14697H5.14727H5.14758H5.14788H5.14818H5.14848H5.14878H5.14908H5.14938H5.14969H5.14999H5.15029H5.15059H5.15089H5.15119H5.15149H5.1518H5.1521H5.1524H5.1527H5.153H5.1533H5.15361H5.15391H5.15421H5.15451H5.15481H5.15511H5.15542H5.15572H5.15602H5.15632H5.15662H5.15692H5.15723H5.15753H5.15783H5.15813H5.15843H5.15873H5.15904H5.15934H5.15964H5.15994H5.16024H5.16054H5.16085H5.16115H5.16145H5.16175H5.16205H5.16235H5.16266H5.16296H5.16326H5.16356H5.16386H5.16417H5.16447H5.16477H5.16507H5.16537H5.16568H5.16598H5.16628H5.16658H5.16688H5.16719H5.16749H5.16779H5.16809H5.16839H5.1687H5.169H5.1693H5.1696H5.1699H5.17021H5.17051H5.17081H5.17111H5.17141H5.17172H5.17202H5.17232H5.17262H5.17292H5.17323H5.17353H5.17383H5.17413H5.17444H5.17474H5.17504H5.17534H5.17564H5.17595H5.17625H5.17655H5.17685H5.17716H5.17746H5.17776H5.17806H5.17837H5.17867H5.17897H5.17927H5.17958H5.17988H5.18018H5.18048H5.18079H5.18109H5.18139H5.18169H5.18199H5.1823H5.1826H5.1829H5.18321H5.18351H5.18381H5.18411H5.18442H5.18472H5.18502H5.18532H5.18563H5.18593H5.18623H5.18653H5.18684H5.18714H5.18744H5.18774H5.18805H5.18835H5.18865H5.18896H5.18926H5.18956H5.18986H5.19017H5.19047H5.19077H5.19107H5.19138H5.19168H5.19198H5.19229H5.19259H5.19289H5.1932H5.1935H5.1938H5.1941H5.19441H5.19471H5.19501H5.19532H5.19562H5.19592H5.19623H5.19653H5.19683H5.19713H5.19744H5.19774H5.19804H5.19835H5.19865H5.19895H5.19926H5.19956H5.19986H5.20017H5.20047H5.20077H5.20108H5.20138H5.20168H5.20199H5.20229H5.20259H5.2029H5.2032H5.2035H5.2038H5.20411H5.20441H5.20472H5.20502H5.20532H5.20563H5.20593H5.20623H5.20654H5.20684H5.20714H5.20745H5.20775H5.20805H5.20836H5.20866H5.20896H5.20927H5.20957H5.20988H5.21018H5.21048H5.21079H5.21109H5.21139H5.2117H5.212H5.2123H5.21261H5.21291H5.21322H5.21352H5.21382H5.21413H5.21443H5.21474H5.21504H5.21534H5.21565H5.21595H5.21625H5.21656H5.21686H5.21826C6.23123 14.405 7.20729 14.023 7.94985 13.334L7.95019 13.3337C8.05638 13.2352 8.15683 13.1308 8.25102 13.0208L8.81934 12.3574L9.38912 13.0196C9.48409 13.1299 9.58519 13.2349 9.69193 13.3339L9.692 13.334C10.4346 14.023 11.4106 14.405 12.4236 14.4031L12.425 14.4031C13.6646 14.4031 14.7573 13.8709 15.4614 13.0629L15.4871 13.0334L15.5158 13.0067C15.6557 12.8764 15.84 12.8038 16.0315 12.8038C16.2231 12.8038 16.4073 12.8764 16.5472 13.0067L16.5468 13.0062L16.0362 13.5556L16.5475 13.0069L30.1021 10.9514ZM30.1021 10.9514L30.1055 10.9586M30.1021 10.9514L30.1055 10.9586M16.3963 13.8776L16.9001 13.3346L16.9005 13.335L16.3963 13.8776M16.3963 13.8776L16.1774 13.6868L16.39 13.8844M16.3963 13.8776L16.3963 13.8776M16.3963 13.8776L16.39 13.8844M16.39 13.8844C16.4537 13.9435 16.519 14.0008 16.5855 14.0561C16.5878 14.0535 16.59 14.0509 16.5923 14.0484L16.3963 13.8776M16.39 13.8844L16.3963 13.8776M12.425 15.1531C11.2996 15.1552 10.2127 14.7582 9.3553 14.037C9.367 14.0236 9.37864 14.0102 9.3902 13.9967L9.21575 13.8472L8.82061 13.5088L8.42663 13.8478L8.42661 13.8478L8.2521 13.9979C8.26343 14.0111 8.27481 14.0242 8.28626 14.0372C7.42892 14.7583 6.34208 15.1552 5.21686 15.1531H12.425ZM12.425 15.1531C13.88 15.1531 15.1794 14.5281 16.0269 13.5556L12.425 15.1531ZM23.2375 13.5531C23.0741 13.7413 22.8939 13.9164 22.6989 14.0765C22.6897 14.066 22.6805 14.0555 22.6713 14.045L23.2375 13.5531ZM23.2375 13.5531C23.4009 13.7413 23.5812 13.9163 23.7762 14.0764C23.7854 14.0659 23.7947 14.0554 23.8039 14.0448L23.2375 13.5531ZM30.1055 10.9586C30.445 11.6891 30.1028 12.4194 29.9692 12.7045C29.969 12.7048 29.9689 12.7051 29.9688 12.7054L29.8824 12.8349C29.6264 13.193 29.3086 13.5028 28.9439 13.7495L28.9321 13.7572C28.8785 13.7922 28.8394 13.8177 28.7991 13.8419L28.7991 13.8418M30.1055 10.9586L28.7991 13.8418M28.7991 13.8418L28.7891 13.848M28.7991 13.8418L28.7891 13.848M28.7891 13.848C28.245 14.1861 27.6227 14.3776 26.9829 14.4038L28.7891 13.848ZM2.03831 12.7206C2.03831 12.7206 2.03793 12.7199 2.0372 12.7186L2.03814 12.7203L2.03831 12.7206Z" stroke="#FD7E7E" stroke-width="1.5"/>
</g>
</svg>
