<svg width="32" height="32" viewBox="0 0 32 32" fill="none" xmlns="http://www.w3.org/2000/svg">
<g id="super-g">
<path id="Shape" d="M16.0004 6.18665C19.0048 6.18665 21.0315 7.48442 22.187 8.56886L26.7026 4.15999C23.9293 1.58222 20.3204 0 16.0004 0C9.74259 0 4.33814 3.5911 1.70703 8.81775L6.88037 12.8355C8.17814 8.97775 11.7693 6.18665 16.0004 6.18665Z" fill="#EA4335"/>
<path id="Shape_2" d="M31.361 16.3551C31.361 15.0395 31.2543 14.0795 31.0232 13.084H16.001V19.0217H24.8188C24.641 20.4973 23.681 22.7195 21.5476 24.2128L26.5965 28.1239C29.6188 25.3328 31.361 21.2262 31.361 16.3551Z" fill="#4285F4"/>
<path id="Shape_3" d="M6.89778 19.1635C6.56 18.168 6.36445 17.1013 6.36445 15.9991C6.36445 14.8969 6.56 13.8302 6.88 12.8347L1.70667 8.81689C0.622222 10.9858 0 13.4213 0 15.9991C0 18.5769 0.622222 21.0124 1.70667 23.1813L6.89778 19.1635Z" fill="#FBBC05"/>
<path id="Shape_4" d="M16.0002 32.0001C20.3202 32.0001 23.9468 30.5778 26.5957 28.1245L21.5468 24.2134C20.1957 25.1556 18.3824 25.8134 16.0002 25.8134C11.7691 25.8134 8.17794 23.0223 6.89794 19.1646L1.72461 23.1823C4.35572 28.409 9.74239 32.0001 16.0002 32.0001Z" fill="#34A853"/>
</g>
</svg>
